<svg width="24" height="26" viewBox="0 0 24 26" fill="none" xmlns="http://www.w3.org/2000/svg">
<path fill-rule="evenodd" clip-rule="evenodd" d="M9.7348 2.24528C10.294 2.01745 10.8938 1.90001 11.5 1.90001C12.1061 1.90001 12.706 2.01745 13.2652 2.24528C13.8243 2.47311 14.3315 2.80664 14.7579 3.22614C15.1844 3.64561 15.5219 4.14279 15.7519 4.68889C15.9818 5.23495 16.1 5.81969 16.1 6.40984C16.1 7 15.9818 7.58474 15.7519 8.1308C15.5219 8.6769 15.1844 9.17407 14.7579 9.59354C14.3315 10.013 13.8243 10.3466 13.2652 10.5744C12.706 10.8022 12.1061 10.9197 11.5 10.9197C10.8938 10.9197 10.294 10.8022 9.73479 10.5744C9.17562 10.3466 8.6685 10.013 8.242 9.59354C7.81554 9.17407 7.47806 8.6769 7.24809 8.1308C7.01813 7.58474 6.89998 7 6.89998 6.40984C6.89998 5.81969 7.01813 5.23495 7.24809 4.68888C7.47806 4.14279 7.81554 3.64561 8.242 3.22614C8.6685 2.80664 9.17562 2.4731 9.7348 2.24528ZM11.5 0.100006C10.6616 0.100006 9.83102 0.262419 9.05564 0.578327C8.28023 0.894244 7.57473 1.35768 6.97977 1.94288C6.38479 2.52811 5.91202 3.22368 5.58919 3.99029C5.26634 4.75693 5.09998 5.57914 5.09998 6.40984C5.09998 7.24055 5.26634 8.06276 5.58919 8.82939C5.91202 9.596 6.38479 10.2916 6.97977 10.8768C7.57473 11.462 8.28023 11.9254 9.05564 12.2414C9.83102 12.5573 10.6616 12.7197 11.5 12.7197C12.3384 12.7197 13.1689 12.5573 13.9443 12.2414C14.7197 11.9254 15.4252 11.462 16.0202 10.8768C16.6152 10.2916 17.0879 9.596 17.4108 8.82939C17.7336 8.06276 17.9 7.24055 17.9 6.40984C17.9 5.57914 17.7336 4.75693 17.4108 3.99029C17.0879 3.22369 16.6152 2.52811 16.0202 1.94288C15.4252 1.35768 14.7197 0.894245 13.9443 0.578327C13.1689 0.262419 12.3384 0.100006 11.5 0.100006ZM1.89998 24.6066C1.89998 19.142 6.40782 14.6869 12 14.6869C17.5921 14.6869 22.1 19.142 22.1 24.6066C22.1 25.1036 22.5029 25.5066 23 25.5066C23.497 25.5066 23.9 25.1036 23.9 24.6066C23.9 18.12 18.5581 12.8869 12 12.8869C5.44187 12.8869 0.0999756 18.12 0.0999756 24.6066C0.0999756 25.1036 0.502919 25.5066 0.999976 25.5066C1.49703 25.5066 1.89998 25.1036 1.89998 24.6066Z" fill="#68E68B"/>
</svg>
