<svg width="22" height="22" viewBox="0 0 22 22" fill="none" xmlns="http://www.w3.org/2000/svg">
<path d="M18.7478 7.26957L18.0065 21.0913C17.9826 21.5935 17.5522 22 17.05 22H4.95C4.44783 22 4.01739 21.5935 3.99348 21.0913L3.25217 7.26957C3.22826 6.74348 3.63478 6.28914 4.16087 6.26522C4.68696 6.24131 5.1413 6.64783 5.16522 7.17392L5.8587 20.087H16.1652L16.8587 7.17392C16.8826 6.64783 17.337 6.24131 17.863 6.26522C18.3652 6.28914 18.7717 6.74348 18.7478 7.26957ZM21.2826 4.06522C21.2826 4.59131 20.8522 5.02174 20.3261 5.02174H1.67391C1.14783 5.02174 0.717392 4.59131 0.717392 4.06522C0.717392 3.53914 1.14783 3.1087 1.67391 3.1087H6.93478V0.956527C6.93478 0.502179 7.24565 0.239136 7.7 0.239136H14.3C14.7543 0.239136 15.0652 0.502179 15.0652 0.956527V3.1087H20.3261C20.8522 3.1087 21.2826 3.53914 21.2826 4.06522ZM8.6087 3.1087H13.3913V1.91305H8.6087V3.1087ZM9.01522 18.6522C9.49348 18.6522 9.85217 18.1978 9.85217 17.7435L9.61304 7.41305C9.61304 6.9587 9.23044 6.57609 8.75217 6.57609C8.29783 6.57609 7.91522 6.9587 7.93913 7.43696L8.17826 17.7913C8.17826 18.2457 8.56087 18.6522 9.01522 18.6522ZM12.9609 18.6522C13.4152 18.6522 13.7978 18.2696 13.7978 17.8152L14.037 7.48479C14.037 7.03044 13.6783 6.62392 13.2239 6.62392C12.7457 6.62392 12.387 6.98261 12.363 7.43696L12.1239 17.7674C12.1 18.2457 12.4826 18.6522 12.9609 18.6522C12.937 18.6522 12.937 18.6522 12.9609 18.6522Z" fill="white"/>
</svg>
