<svg width="77" height="46" viewBox="0 0 77 46" fill="none" xmlns="http://www.w3.org/2000/svg">
<path d="M5.975 28.5H13.775V36.9H11.825V34.8H11.525C11.2417 35.5333 10.7417 36.125 10.025 36.575C9.30833 37.025 8.475 37.25 7.525 37.25C5.64167 37.25 4.15833 36.6417 3.075 35.425C2.00833 34.2083 1.475 32.4333 1.475 30.1V26.2C1.475 23.9333 2.01667 22.175 3.1 20.925C4.18333 19.675 5.69167 19.05 7.625 19.05C8.625 19.05 9.50833 19.2167 10.275 19.55C11.0417 19.8667 11.6833 20.3167 12.2 20.9C12.7167 21.4667 13.1083 22.1417 13.375 22.925C13.6417 23.6917 13.775 24.5167 13.775 25.4V25.7H11.675V25.4C11.675 24.8333 11.5917 24.2833 11.425 23.75C11.275 23.2167 11.0333 22.75 10.7 22.35C10.3833 21.9333 9.96667 21.6083 9.45 21.375C8.95 21.125 8.34167 21 7.625 21C6.275 21 5.25833 21.4917 4.575 22.475C3.90833 23.4583 3.575 24.75 3.575 26.35V29.95C3.575 31.6667 3.90833 32.9917 4.575 33.925C5.25833 34.8417 6.29167 35.3 7.675 35.3C8.925 35.3 9.9 34.9 10.6 34.1C11.3167 33.3 11.675 32.1833 11.675 30.75V30.45H5.975V28.5ZM16.7826 24.5H21.2826V26.15H21.5826C21.8993 25.4667 22.3493 24.9667 22.9326 24.65C23.516 24.3167 24.1826 24.15 24.9326 24.15C26.1826 24.15 27.191 24.5583 27.9576 25.375C28.7243 26.1917 29.1326 27.3833 29.1826 28.95L27.1326 29.25C27.1326 28.1 26.8576 27.275 26.3076 26.775C25.7576 26.2583 25.0826 26 24.2826 26C23.766 26 23.316 26.1 22.9326 26.3C22.566 26.5 22.2576 26.775 22.0076 27.125C21.7576 27.475 21.5743 27.8833 21.4576 28.35C21.341 28.8167 21.2826 29.3167 21.2826 29.85V35.1H24.4326V36.9H16.4826V35.1H19.3326V26.3H16.7826V24.5ZM44.4902 30.85C44.4902 31.8833 44.3152 32.8 43.9652 33.6C43.6319 34.3833 43.1819 35.05 42.6152 35.6C42.0486 36.1333 41.3819 36.5417 40.6152 36.825C39.8652 37.1083 39.0819 37.25 38.2652 37.25C37.4319 37.25 36.6402 37.1083 35.8902 36.825C35.1402 36.5417 34.4819 36.1333 33.9152 35.6C33.3486 35.05 32.8902 34.3833 32.5402 33.6C32.2069 32.8 32.0402 31.8833 32.0402 30.85V30.55C32.0402 29.5333 32.2069 28.6333 32.5402 27.85C32.8902 27.05 33.3486 26.375 33.9152 25.825C34.4986 25.275 35.1652 24.8583 35.9152 24.575C36.6652 24.2917 37.4486 24.15 38.2652 24.15C39.0819 24.15 39.8652 24.2917 40.6152 24.575C41.3652 24.8583 42.0236 25.275 42.5902 25.825C43.1736 26.375 43.6319 27.05 43.9652 27.85C44.3152 28.6333 44.4902 29.5333 44.4902 30.55V30.85ZM38.2652 35.4C38.8652 35.4 39.4152 35.3 39.9152 35.1C40.4319 34.8833 40.8819 34.575 41.2652 34.175C41.6486 33.775 41.9486 33.3 42.1652 32.75C42.3819 32.1833 42.4902 31.55 42.4902 30.85V30.55C42.4902 29.8833 42.3819 29.275 42.1652 28.725C41.9486 28.1583 41.6486 27.675 41.2652 27.275C40.8819 26.875 40.4319 26.5667 39.9152 26.35C39.3986 26.1167 38.8486 26 38.2652 26C37.6819 26 37.1319 26.1167 36.6152 26.35C36.0986 26.5667 35.6486 26.875 35.2652 27.275C34.8819 27.675 34.5819 28.1583 34.3652 28.725C34.1486 29.275 34.0402 29.8833 34.0402 30.55V30.85C34.0402 31.55 34.1486 32.1833 34.3652 32.75C34.5819 33.3 34.8819 33.775 35.2652 34.175C35.6486 34.575 36.0902 34.8833 36.5902 35.1C37.1069 35.3 37.6652 35.4 38.2652 35.4ZM49.6729 19.4V31C49.6729 32.4167 49.9979 33.4917 50.6479 34.225C51.3145 34.9417 52.2895 35.3 53.5729 35.3C54.8562 35.3 55.8229 34.9417 56.4729 34.225C57.1395 33.4917 57.4729 32.4167 57.4729 31V19.4H59.5729V31C59.5729 33.0333 59.0395 34.5833 57.9729 35.65C56.9062 36.7167 55.4395 37.25 53.5729 37.25C51.7062 37.25 50.2395 36.7167 49.1729 35.65C48.1062 34.5833 47.5729 33.0333 47.5729 31V19.4H49.6729ZM64.9055 41.9H62.9555V24.5H64.9055V26.45H65.2055C65.6388 25.7 66.2388 25.1333 67.0055 24.75C67.7721 24.35 68.6055 24.15 69.5055 24.15C70.2721 24.15 70.9971 24.2917 71.6805 24.575C72.3638 24.8583 72.9638 25.2667 73.4805 25.8C74.0138 26.3333 74.4305 26.9917 74.7305 27.775C75.0471 28.5583 75.2055 29.45 75.2055 30.45V30.95C75.2055 31.9667 75.0555 32.8667 74.7555 33.65C74.4555 34.4333 74.0388 35.0917 73.5055 35.625C72.9888 36.1583 72.3805 36.5667 71.6805 36.85C70.9805 37.1167 70.2388 37.25 69.4555 37.25C69.0555 37.25 68.6471 37.2 68.2305 37.1C67.8138 37.0167 67.4138 36.8833 67.0305 36.7C66.6638 36.5 66.3221 36.2667 66.0055 36C65.6888 35.7167 65.4221 35.3833 65.2055 35H64.9055V41.9ZM69.0555 35.4C69.6555 35.4 70.2055 35.3 70.7055 35.1C71.2055 34.8833 71.6388 34.5833 72.0055 34.2C72.3888 33.8167 72.6805 33.35 72.8805 32.8C73.0971 32.25 73.2055 31.6333 73.2055 30.95V30.45C73.2055 29.7833 73.0971 29.1833 72.8805 28.65C72.6805 28.1 72.3888 27.6333 72.0055 27.25C71.6388 26.85 71.1971 26.5417 70.6805 26.325C70.1805 26.1083 69.6388 26 69.0555 26C68.4721 26 67.9305 26.1167 67.4305 26.35C66.9305 26.5667 66.4888 26.875 66.1055 27.275C65.7388 27.675 65.4471 28.1583 65.2305 28.725C65.0138 29.275 64.9055 29.8833 64.9055 30.55V30.85C64.9055 31.5333 65.0138 32.1583 65.2305 32.725C65.4471 33.275 65.7388 33.75 66.1055 34.15C66.4888 34.55 66.9305 34.8583 67.4305 35.075C67.9305 35.2917 68.4721 35.4 69.0555 35.4Z" fill="white"/>
<path d="M58.75 17.675L56.65 17.675L53.4 7.97497L53.1 7.97497L49.85 17.675L47.75 17.675L51.35 7.22497L55.15 7.22497L58.75 17.675Z" fill="#ABF08D"/>
</svg>
