<svg width="8" height="8" viewBox="0 0 8 8" fill="none" xmlns="http://www.w3.org/2000/svg">
<path d="M7.91434 6.06698C7.61653 5.504 6.58239 4.89357 6.53686 4.86687C6.40397 4.79124 6.26531 4.75119 6.13554 4.75119C5.94259 4.75119 5.78464 4.83959 5.68898 5.00035C5.53771 5.18129 5.3501 5.39277 5.30457 5.42555C4.95219 5.66462 4.67634 5.63748 4.37112 5.33226L2.66766 3.62866C2.36438 3.32537 2.33649 3.0461 2.57393 2.69565C2.60715 2.64983 2.81864 2.46207 2.99958 2.31065C3.11496 2.24198 3.19416 2.13995 3.22886 2.01477C3.27498 1.84822 3.24102 1.65231 3.13216 1.46144C3.10651 1.41754 2.49578 0.383244 1.9331 0.0855905C1.8281 0.0299752 1.70975 0.000610352 1.5911 0.000610352C1.39563 0.000610352 1.21173 0.0768404 1.07351 0.214915L0.697104 0.591171C0.101797 1.18633 -0.113693 1.86098 0.0562671 2.59629C0.198049 3.20909 0.611234 3.8612 1.28455 4.53437L3.46541 6.71523C4.31758 7.5674 5.13001 7.99957 5.88015 7.99957C5.88015 7.99957 5.88015 7.99957 5.8803 7.99957C6.432 7.99957 6.94633 7.7651 7.40861 7.30282L7.78486 6.92657C8.01355 6.69803 8.06546 6.35247 7.91434 6.06698Z" fill="white"/>
</svg>
